<mxfile host="app.diagrams.net" modified="2021-01-06T15:08:31.547Z" agent="5.0 (Macintosh; Intel Mac OS X 10_15_7) AppleWebKit/537.36 (KHTML, like Gecko) Chrome/87.0.4280.88 Safari/537.36" etag="yuLNzqlzrWGikhBp2dcG" version="14.1.3" type="github">
  <diagram id="ItdWHxaEiJTJODX1TtfW" name="Page-1">
    <mxGraphModel dx="1135" dy="620" grid="1" gridSize="10" guides="1" tooltips="1" connect="1" arrows="1" fold="1" page="1" pageScale="1" pageWidth="850" pageHeight="1100" math="0" shadow="0">
      <root>
        <mxCell id="0" />
        <mxCell id="1" parent="0" />
        <mxCell id="6G2YrjMsrMPKAnSGt6pV-1" value="" style="triangle;whiteSpace=wrap;html=1;rotation=-90;" vertex="1" parent="1">
          <mxGeometry x="120" y="120" width="515" height="375" as="geometry" />
        </mxCell>
        <mxCell id="6G2YrjMsrMPKAnSGt6pV-3" value="" style="endArrow=none;html=1;" edge="1" parent="1">
          <mxGeometry width="50" height="50" relative="1" as="geometry">
            <mxPoint x="62.5" y="250" as="sourcePoint" />
            <mxPoint x="692.5" y="250" as="targetPoint" />
          </mxGeometry>
        </mxCell>
        <mxCell id="6G2YrjMsrMPKAnSGt6pV-4" value="" style="endArrow=none;html=1;" edge="1" parent="1">
          <mxGeometry width="50" height="50" relative="1" as="geometry">
            <mxPoint x="62.5" y="420" as="sourcePoint" />
            <mxPoint x="692.5" y="420" as="targetPoint" />
          </mxGeometry>
        </mxCell>
        <mxCell id="6G2YrjMsrMPKAnSGt6pV-5" value="&lt;ol class=&quot;ol1&quot; style=&quot;font-size: medium&quot;&gt;&lt;li class=&quot;li1&quot; style=&quot;margin: 0px ; font-stretch: normal ; font-size: 11px ; line-height: normal ; font-family: &amp;#34;pingfang sc&amp;#34;&quot;&gt;&lt;span class=&quot;s1&quot; style=&quot;font-stretch: normal ; line-height: normal ; font-family: &amp;#34;helvetica neue&amp;#34;&quot;&gt;&lt;/span&gt;距离故障输电塔&lt;span class=&quot;s1&quot; style=&quot;font-stretch: normal ; line-height: normal ; font-family: &amp;#34;helvetica neue&amp;#34;&quot;&gt;5&lt;/span&gt;公里内的居民区有多少个？&lt;/li&gt;&lt;li class=&quot;li1&quot; style=&quot;margin: 0px ; font-stretch: normal ; font-size: 11px ; line-height: normal ; font-family: &amp;#34;pingfang sc&amp;#34;&quot;&gt;&lt;span class=&quot;s1&quot; style=&quot;font-stretch: normal ; line-height: normal ; font-family: &amp;#34;helvetica neue&amp;#34;&quot;&gt;&lt;/span&gt;有多少条道路需要设置警示牌来注意高压危险？&lt;/li&gt;&lt;/ol&gt;" style="text;html=1;align=left;verticalAlign=middle;resizable=0;points=[];autosize=1;" vertex="1" parent="1">
          <mxGeometry x="370" y="145" width="310" height="70" as="geometry" />
        </mxCell>
        <mxCell id="6G2YrjMsrMPKAnSGt6pV-6" value="土地利用类型图层&lt;br&gt;&lt;b&gt;距离求算，求交运算，关联查询&lt;/b&gt;" style="text;html=1;align=center;verticalAlign=middle;resizable=0;points=[];autosize=1;" vertex="1" parent="1">
          <mxGeometry x="180" y="160" width="180" height="30" as="geometry" />
        </mxCell>
        <mxCell id="6G2YrjMsrMPKAnSGt6pV-7" value="输电廊道条带&lt;br&gt;&lt;b&gt;缓冲区分析，面积量算，距离量算，聚集函数&lt;/b&gt;" style="text;html=1;align=center;verticalAlign=middle;resizable=0;points=[];autosize=1;" vertex="1" parent="1">
          <mxGeometry x="120" y="300" width="260" height="30" as="geometry" />
        </mxCell>
        <mxCell id="6G2YrjMsrMPKAnSGt6pV-8" value="输电线" style="text;html=1;align=center;verticalAlign=middle;resizable=0;points=[];autosize=1;" vertex="1" parent="1">
          <mxGeometry x="195" y="430" width="50" height="20" as="geometry" />
        </mxCell>
        <mxCell id="6G2YrjMsrMPKAnSGt6pV-9" value="高压电塔" style="text;html=1;align=center;verticalAlign=middle;resizable=0;points=[];autosize=1;" vertex="1" parent="1">
          <mxGeometry x="190" y="450" width="60" height="20" as="geometry" />
        </mxCell>
        <mxCell id="6G2YrjMsrMPKAnSGt6pV-10" value="&lt;ol class=&quot;ol1&quot; style=&quot;text-align: left ; font-size: medium&quot;&gt;&lt;li class=&quot;li1&quot; style=&quot;margin: 0px ; font-stretch: normal ; font-size: 11px ; line-height: normal ; font-family: &amp;#34;pingfang sc&amp;#34;&quot;&gt;所有输电廊道&lt;span class=&quot;s1&quot; style=&quot;font-stretch: normal ; line-height: normal ; font-family: &amp;#34;helvetica neue&amp;#34;&quot;&gt;1&lt;/span&gt;公里缓冲区内的用地类型有哪些？&lt;br&gt;用地面积占比最大的和最小的用地类型分别是什么？&lt;/li&gt;&lt;li class=&quot;li1&quot; style=&quot;margin: 0px ; font-stretch: normal ; font-size: 11px ; line-height: normal ; font-family: &amp;#34;pingfang sc&amp;#34;&quot;&gt;编号为&lt;span class=&quot;s1&quot; style=&quot;font-stretch: normal ; line-height: normal ; font-family: &amp;#34;helvetica neue&amp;#34;&quot;&gt;X003&lt;/span&gt;的输电廊道单位面积的输电塔个数是多少？&lt;br&gt;单位长度的树木个数是多少？&lt;/li&gt;&lt;/ol&gt;" style="text;html=1;align=center;verticalAlign=middle;resizable=0;points=[];autosize=1;" vertex="1" parent="1">
          <mxGeometry x="380" y="260" width="350" height="110" as="geometry" />
        </mxCell>
        <mxCell id="6G2YrjMsrMPKAnSGt6pV-11" value="&lt;ol class=&quot;ol1&quot; style=&quot;text-align: left ; font-size: medium&quot;&gt;&lt;li class=&quot;li1&quot; style=&quot;margin: 0px ; font-stretch: normal ; font-size: 11px ; line-height: normal ; font-family: &amp;#34;pingfang sc&amp;#34;&quot;&gt;输电廊道上需要砍掉的离输电线路太近的树木有多少颗？&lt;/li&gt;&lt;li class=&quot;li1&quot; style=&quot;margin: 0px ; font-stretch: normal ; font-size: 11px ; line-height: normal ; font-family: &amp;#34;pingfang sc&amp;#34;&quot;&gt;输电廊道上哪些树木因为靠近输电线路而需要修剪？&lt;br&gt;&lt;span class=&quot;s1&quot; style=&quot;font-stretch: normal ; line-height: normal ; font-family: &amp;#34;helvetica neue&amp;#34;&quot;&gt;&lt;/span&gt;&lt;/li&gt;&lt;li class=&quot;li1&quot; style=&quot;margin: 0px ; font-stretch: normal ; font-size: 11px ; line-height: normal ; font-family: &amp;#34;pingfang sc&amp;#34;&quot;&gt;按照受树木干扰威胁程度对编号为&lt;span class=&quot;s1&quot; style=&quot;font-stretch: normal ; line-height: normal ; font-family: &amp;#34;helvetica neue&amp;#34;&quot;&gt;A001&lt;/span&gt;对输电线路&lt;br&gt;上的所有输电塔排序，并给出前三个输电塔之间的距离&lt;/li&gt;&lt;/ol&gt;" style="text;html=1;align=center;verticalAlign=middle;resizable=0;points=[];autosize=1;" vertex="1" parent="1">
          <mxGeometry x="440" y="425" width="360" height="110" as="geometry" />
        </mxCell>
        <mxCell id="6G2YrjMsrMPKAnSGt6pV-12" value="树木" style="text;html=1;align=center;verticalAlign=middle;resizable=0;points=[];autosize=1;" vertex="1" parent="1">
          <mxGeometry x="200" y="470" width="40" height="20" as="geometry" />
        </mxCell>
        <mxCell id="6G2YrjMsrMPKAnSGt6pV-13" value="&lt;b&gt;距离求算，查询结果排序，多表关联查询，聚集函数&lt;/b&gt;" style="text;html=1;align=center;verticalAlign=middle;resizable=0;points=[];autosize=1;" vertex="1" parent="1">
          <mxGeometry x="70" y="490" width="290" height="20" as="geometry" />
        </mxCell>
        <mxCell id="6G2YrjMsrMPKAnSGt6pV-14" value="&lt;p class=&quot;p1&quot; style=&quot;margin: 0px ; font-stretch: normal ; line-height: normal ; font-family: &amp;#34;helvetica neue&amp;#34;&quot;&gt;&lt;b&gt;&lt;font style=&quot;font-size: 14px&quot;&gt;Risk management&lt;span class=&quot;Apple-converted-space&quot;&gt;&amp;nbsp;&lt;/span&gt;&lt;/font&gt;&lt;/b&gt;&lt;/p&gt;&lt;p class=&quot;p1&quot; style=&quot;margin: 0px ; font-stretch: normal ; line-height: normal ; font-family: &amp;#34;helvetica neue&amp;#34;&quot;&gt;&lt;b&gt;&lt;font size=&quot;3&quot;&gt;of electric assets&lt;/font&gt;&lt;/b&gt;&lt;/p&gt;" style="text;html=1;align=center;verticalAlign=middle;resizable=0;points=[];autosize=1;" vertex="1" parent="1">
          <mxGeometry x="302.5" y="40" width="150" height="40" as="geometry" />
        </mxCell>
      </root>
    </mxGraphModel>
  </diagram>
</mxfile>
